<svg width="298" height="88" viewBox="0 0 298 88" fill="none" xmlns="http://www.w3.org/2000/svg">
<path d="M100.82 73L100.088 69.5283H94.3311L93.5986 73H85.7617V66.2031L87.4609 65.8662L91.5186 52.375H102.886L106.973 65.8662L108.657 66.2031V73H100.82ZM95.2246 64.8994H99.1943L97.2021 56.7988L95.2246 64.8994ZM118.896 62.4092C118.896 63.9619 119.292 65.0947 120.083 65.8076C120.874 66.5107 121.997 66.8623 123.452 66.8623C124.312 66.8623 125.317 66.7549 126.47 66.54C127.632 66.3252 128.94 65.998 130.396 65.5586V71.9307C127.466 72.8193 124.648 73.2637 121.943 73.2637C120.264 73.2637 118.701 73.0684 117.256 72.6777C115.811 72.2773 114.556 71.623 113.491 70.7148C112.427 69.8066 111.587 68.6641 110.972 67.2871C110.366 65.9004 110.063 64.2744 110.063 62.4092C110.063 60.5635 110.342 58.9766 110.898 57.6484C111.465 56.3105 112.261 55.2119 113.286 54.3525C114.321 53.4834 115.562 52.8438 117.007 52.4336C118.452 52.0234 120.063 51.8184 121.841 51.8184C122.925 51.8184 123.901 51.8721 124.771 51.9795C125.649 52.0869 126.436 52.2236 127.129 52.3896C127.832 52.5557 128.447 52.7412 128.975 52.9463C129.512 53.1416 129.985 53.332 130.396 53.5176V59.8896H126.25C125.781 59.2451 125.264 58.7715 124.697 58.4688C124.131 58.1562 123.54 58 122.925 58C122.417 58 121.919 58.0977 121.431 58.293C120.952 58.4883 120.522 58.7764 120.142 59.1572C119.771 59.5283 119.468 59.9873 119.233 60.5342C119.009 61.0811 118.896 61.7061 118.896 62.4092ZM137.866 57.8242C137.358 57.8242 136.909 57.8926 136.519 58.0293C136.128 58.166 135.801 58.3369 135.537 58.542C135.273 58.7471 135.073 58.9717 134.937 59.2158C134.8 59.4502 134.731 59.6699 134.731 59.875H132.285V52.375H152.266V59.875H149.819C149.819 59.6699 149.751 59.4502 149.614 59.2158C149.478 58.9717 149.277 58.7471 149.014 58.542C148.75 58.3369 148.423 58.166 148.032 58.0293C147.642 57.8926 147.192 57.8242 146.685 57.8242V66.8184L148.442 67.1553V73H136.108V67.1553L137.866 66.8184V57.8242ZM154.272 52.375H166.606V58.1465L164.849 58.4834V66.8184L166.606 67.1553V73H154.272V67.1553L156.03 66.8184V58.4834L154.272 58.1465V52.375ZM175.85 73.0146L170.371 58.4688L168.276 58.1465V52.375H181.138V58.1465L179.629 58.4688L182.002 66.4375L184.39 58.4688L182.866 58.1465V52.375H193.516V58.1465L191.436 58.4688L185.957 73.0146H175.85ZM195.2 52.375H207.534V58.1465L205.776 58.4834V66.8184L207.534 67.1553V73H195.2V67.1553L196.958 66.8184V58.4834L195.2 58.1465V52.375ZM215.122 57.8242C214.614 57.8242 214.165 57.8926 213.774 58.0293C213.384 58.166 213.057 58.3369 212.793 58.542C212.529 58.7471 212.329 58.9717 212.192 59.2158C212.056 59.4502 211.987 59.6699 211.987 59.875H209.541V52.375H229.521V59.875H227.075C227.075 59.6699 227.007 59.4502 226.87 59.2158C226.733 58.9717 226.533 58.7471 226.27 58.542C226.006 58.3369 225.679 58.166 225.288 58.0293C224.897 57.8926 224.448 57.8242 223.94 57.8242V66.8184L225.698 67.1553V73H213.364V67.1553L215.122 66.8184V57.8242ZM236.86 73V67.1846L238.618 66.7451L232.568 58.4688L230.342 58.1465V52.375H242.104V58.1465L240.728 58.4688L243.525 62.7021L246.309 58.4688L244.932 58.1465V52.375H256.68V58.1465L254.468 58.4688L248.418 66.7451L250.19 67.1846V73H236.86Z" fill="#FF6347"/>
<path d="M92.1484 47V40.6719L94.0234 40.2031L87.5928 31.209L85.2197 30.8574V24.5H97.7295V30.8574L96.2646 31.209L99.2383 35.8086L102.212 31.209L100.747 30.8574V24.5H113.242V30.8574L110.884 31.209L104.453 40.2031L106.328 40.6719V47H92.1484ZM126.06 47.2637C124.341 47.2637 122.729 47.083 121.226 46.7217C119.731 46.3506 118.428 45.7207 117.314 44.832C116.211 43.9336 115.337 42.791 114.692 41.4043C114.058 40.0176 113.74 38.3525 113.74 36.4092C113.74 34.5049 114.058 32.8838 114.692 31.5459C115.337 30.1982 116.216 29.1045 117.329 28.2646C118.442 27.415 119.746 26.7949 121.24 26.4043C122.734 26.0137 124.341 25.8184 126.06 25.8184C127.769 25.8184 129.37 26.0137 130.864 26.4043C132.368 26.7949 133.677 27.415 134.79 28.2646C135.913 29.1045 136.797 30.1982 137.441 31.5459C138.086 32.8838 138.408 34.5049 138.408 36.4092C138.408 37.6982 138.262 38.8701 137.969 39.9248C137.676 40.9697 137.261 41.9023 136.724 42.7227C136.196 43.5332 135.557 44.2363 134.805 44.832C134.062 45.418 133.232 45.9062 132.314 46.2969C131.396 46.6777 130.41 46.9316 129.355 47.0586C128.301 47.1953 127.202 47.2637 126.06 47.2637ZM126.06 32.0586C125.483 32.0586 124.995 32.1318 124.595 32.2783C124.204 32.4248 123.877 32.6152 123.613 32.8496C123.359 33.084 123.159 33.3525 123.013 33.6553C122.866 33.958 122.759 34.2705 122.69 34.5928C122.632 34.9053 122.593 35.2178 122.573 35.5303C122.563 35.833 122.559 36.1016 122.559 36.3359C122.559 36.5605 122.563 36.8291 122.573 37.1416C122.583 37.4443 122.617 37.7666 122.676 38.1084C122.734 38.4404 122.832 38.7725 122.969 39.1045C123.105 39.4365 123.301 39.7344 123.555 39.998C123.818 40.2617 124.15 40.4766 124.551 40.6426C124.961 40.7988 125.464 40.877 126.06 40.877C126.646 40.877 127.139 40.7988 127.539 40.6426C127.949 40.4863 128.281 40.2812 128.535 40.0273C128.799 39.7637 129.004 39.4707 129.15 39.1484C129.297 38.8262 129.399 38.5039 129.458 38.1816C129.526 37.8496 129.565 37.5273 129.575 37.2148C129.595 36.9023 129.604 36.6338 129.604 36.4092C129.604 36.1748 129.595 35.9062 129.575 35.6035C129.565 35.291 129.526 34.9736 129.458 34.6514C129.399 34.3291 129.297 34.0166 129.15 33.7139C129.004 33.4014 128.799 33.123 128.535 32.8789C128.281 32.6348 127.949 32.4395 127.539 32.293C127.139 32.1367 126.646 32.0586 126.06 32.0586ZM163.223 32.4834C163.213 32.7764 163.208 33.0645 163.208 33.3477C163.208 33.6211 163.208 33.8848 163.208 34.1387V36.4092C163.208 38.3623 162.939 40.0371 162.402 41.4336C161.865 42.8203 161.138 43.958 160.22 44.8467C159.302 45.7354 158.223 46.3604 156.982 46.7217C155.752 47.083 154.443 47.2637 153.057 47.2637C151.455 47.2637 149.956 47.083 148.56 46.7217C147.173 46.3604 145.962 45.7354 144.927 44.8467C143.901 43.9482 143.091 42.8057 142.495 41.4189C141.909 40.0322 141.616 38.3623 141.616 36.4092V32.4834L139.858 32.1465V26.375H151.299V32.1465L149.541 32.4834V34.2266C149.541 34.4609 149.541 34.7002 149.541 34.9443C149.541 35.1787 149.541 35.3984 149.541 35.6035C149.551 35.8086 149.556 35.9893 149.556 36.1455C149.556 36.292 149.556 36.3896 149.556 36.4385C149.556 36.6631 149.561 36.9268 149.57 37.2295C149.58 37.5225 149.619 37.8301 149.688 38.1523C149.756 38.4648 149.858 38.7773 149.995 39.0898C150.142 39.3926 150.342 39.666 150.596 39.9102C150.859 40.1543 151.187 40.3545 151.577 40.5107C151.978 40.6572 152.471 40.7305 153.057 40.7305C153.643 40.7305 154.136 40.6572 154.536 40.5107C154.946 40.3545 155.278 40.1543 155.532 39.9102C155.796 39.6562 156.001 39.373 156.147 39.0605C156.294 38.748 156.396 38.4355 156.455 38.123C156.523 37.8008 156.562 37.4932 156.572 37.2002C156.592 36.8975 156.602 36.6338 156.602 36.4092C156.602 36.3408 156.602 36.2334 156.602 36.0869C156.602 35.9307 156.597 35.7549 156.587 35.5596C156.587 35.3545 156.587 35.1396 156.587 34.915C156.587 34.6807 156.587 34.4512 156.587 34.2266V32.4834L154.829 32.1465V26.375H164.995V32.1465L163.223 32.4834ZM190.176 47H181.416C181.143 46.4922 180.859 45.9551 180.566 45.3887C180.273 44.8125 179.99 44.2119 179.717 43.5869C179.443 42.9619 179.185 42.3174 178.94 41.6533C178.706 40.9893 178.506 40.3057 178.34 39.6025H177.856V47H167.28V41.1553L169.038 40.8184V32.4834L167.28 32.1465V26.375H179.277C180.869 26.375 182.241 26.4434 183.394 26.5801C184.556 26.7168 185.537 26.917 186.338 27.1807C187.148 27.4443 187.803 27.7666 188.301 28.1475C188.799 28.5186 189.185 28.9434 189.458 29.4219C189.741 29.8906 189.932 30.4082 190.029 30.9746C190.127 31.541 190.176 32.1416 190.176 32.7764C190.176 33.4209 190.112 34.0068 189.985 34.5342C189.868 35.0615 189.653 35.5449 189.341 35.9844C189.028 36.4238 188.599 36.8291 188.052 37.2002C187.515 37.5615 186.826 37.9033 185.986 38.2256C186.162 38.5771 186.421 38.9971 186.763 39.4854C187.114 39.9639 187.495 40.457 187.905 40.9648C188.315 41.4629 188.721 41.9463 189.121 42.415C189.531 42.8838 189.883 43.2842 190.176 43.6162V47ZM177.856 35.6328C178.394 35.6328 178.877 35.6084 179.307 35.5596C179.746 35.501 180.117 35.3838 180.42 35.208C180.732 35.0225 180.972 34.7539 181.138 34.4023C181.304 34.0508 181.387 33.5771 181.387 32.9814C181.387 32.3955 181.304 31.9268 181.138 31.5752C180.972 31.2236 180.732 30.9551 180.42 30.7695C180.117 30.5742 179.746 30.4473 179.307 30.3887C178.877 30.3301 178.394 30.3008 177.856 30.3008V35.6328ZM208.867 36.1748V40.8184L210.64 41.1406V47H201.821V41.1553L203.579 40.8184V32.4834L201.821 32.1465V26.375H212.397L219.443 37.4932V32.5127L217.686 32.1465V26.375H226.489V32.1465L224.731 32.4834V40.8184L226.489 41.1553V47H215.913L208.867 36.1748ZM239.893 35.4424L243.95 34.5781V38.7529L239.893 37.874V41.1113C240.479 41.1113 241.045 41.0723 241.592 40.9941C242.139 40.9062 242.646 40.7891 243.115 40.6426C243.584 40.4961 244.014 40.3252 244.404 40.1299C244.795 39.9346 245.132 39.7246 245.415 39.5H247.422V47H229.316V41.1553L231.074 40.8184V32.5127L229.316 32.1758V26.375H247.422V33.875H245.415C245.132 33.6602 244.795 33.4551 244.404 33.2598C244.014 33.0645 243.584 32.8936 243.115 32.7471C242.646 32.6006 242.139 32.4834 241.592 32.3955C241.045 32.3076 240.479 32.2637 239.893 32.2637V35.4424ZM273.525 40.833L275.62 41.1553V47H261.66V41.1553L263.169 40.833L259.961 38.4307L257.31 40.833L259.917 41.1553V47H249.282V41.1553L251.362 40.833L256.445 36.3799L251.494 32.4688L248.989 32.1465V26.375H262.539V32.1465L261.03 32.4688L264.502 35.0029L266.89 32.4688L264.268 32.1465V26.375H274.917V32.1465L272.427 32.4688L268.311 36.6436L273.525 40.833ZM282.271 31.8242C281.763 31.8242 281.313 31.8926 280.923 32.0293C280.532 32.166 280.205 32.3369 279.941 32.542C279.678 32.7471 279.478 32.9717 279.341 33.2158C279.204 33.4502 279.136 33.6699 279.136 33.875H276.689V26.375H296.67V33.875H294.224C294.224 33.6699 294.155 33.4502 294.019 33.2158C293.882 32.9717 293.682 32.7471 293.418 32.542C293.154 32.3369 292.827 32.166 292.437 32.0293C292.046 31.8926 291.597 31.8242 291.089 31.8242V40.8184L292.847 41.1553V47H280.513V41.1553L282.271 40.8184V31.8242Z" fill="#FF6347"/>
<path d="M38.5 16.5C39.5267 16.5 40.3333 17.3067 40.3333 18.3333V25.6667H62.3333V47.6667H69.6667C70.6933 47.6667 71.5 48.4733 71.5 49.5C71.5 50.5267 70.6933 51.3333 69.6667 51.3333H62.3333V73.3333H54.56C52.0667 66.9167 45.7967 62.3333 38.5 62.3333C31.2033 62.3333 24.9333 66.9167 22.44 73.3333H14.6667V65.56C21.0833 63.0667 25.6667 56.7967 25.6667 49.5C25.6667 42.2033 21.12 35.9333 14.7033 33.44L14.6667 25.6667H36.6667V18.3333C36.6667 17.3067 37.4733 16.5 38.5 16.5ZM38.5 9.16667C33.44 9.16667 29.3333 13.2733 29.3333 18.3333H14.6667C10.6333 18.3333 7.37001 21.6333 7.37001 25.6667V39.6H8.43334C13.8967 39.6 18.3333 44.0367 18.3333 49.5C18.3333 54.9633 13.8967 59.4 8.43334 59.4H7.33334V73.3333C7.33334 77.3667 10.6333 80.6667 14.6667 80.6667H28.6V79.5667C28.6 74.1033 33.0367 69.6667 38.5 69.6667C43.9633 69.6667 48.4 74.1033 48.4 79.5667V80.6667H62.3333C66.3667 80.6667 69.6667 77.3667 69.6667 73.3333V58.6667C74.7267 58.6667 78.8333 54.56 78.8333 49.5C78.8333 44.44 74.7267 40.3333 69.6667 40.3333V25.6667C69.6667 21.6333 66.3667 18.3333 62.3333 18.3333H47.6667C47.6667 13.2733 43.56 9.16667 38.5 9.16667Z" fill="#FF6347"/>
</svg>
